<svg xmlns="http://www.w3.org/2000/svg" width="13.414" height="13.414" viewBox="0 0 13.414 13.414">
  <g id="close_icon" transform="translate(-9.643 -9.643)" fill="#000">
    <path d="M 21.42693138122559 22.70355224609375 L 21.25015258789062 22.52678298950195 L 16.35000228881836 17.62664222717285 L 11.44986248016357 22.52678298950195 L 11.2730827331543 22.70355224609375 L 11.0963020324707 22.52678298950195 L 10.17322254180908 21.60371208190918 L 9.996452331542969 21.42693138122559 L 10.17322254180908 21.25015258789062 L 15.07336235046387 16.35000228881836 L 10.17322254180908 11.44986248016357 L 9.996452331542969 11.2730827331543 L 10.17322254180908 11.0963020324707 L 11.0963020324707 10.17322254180908 L 11.2730827331543 9.996452331542969 L 11.44986248016357 10.17322254180908 L 16.35000228881836 15.07336235046387 L 21.25014305114746 10.17322254180908 L 21.42692184448242 9.996452331542969 L 21.60370254516602 10.17322254180908 L 22.52678298950195 11.0963020324707 L 22.70355224609375 11.2730827331543 L 22.52678298950195 11.44986248016357 L 17.62664222717285 16.35000228881836 L 22.52678298950195 21.25014305114746 L 22.70355224609375 21.42692184448242 L 22.52678298950195 21.60370254516602 L 21.60371208190918 22.52678298950195 L 21.42693138122559 22.70355224609375 Z" stroke="none"/>
    <path d="M 21.42693138122559 22.35000228881836 L 22.35000228881836 21.42692184448242 L 17.2730827331543 16.35000228881836 L 22.35000228881836 11.2730827331543 L 21.42692184448242 10.35000228881836 L 16.35000228881836 15.42692184448242 L 11.2730827331543 10.35000228881836 L 10.35000228881836 11.2730827331543 L 15.42692184448242 16.35000228881836 L 10.35000228881836 21.42693138122559 L 11.2730827331543 22.35000228881836 L 16.35000228881836 17.2730827331543 L 21.42693138122559 22.35000228881836 M 21.42693138122559 23.0571117401123 L 16.35000228881836 17.98018264770508 L 11.2730827331543 23.05710220336914 L 9.642891883850098 21.42693138122559 L 14.71982288360596 16.35000228881836 L 9.642891883850098 11.2730827331543 L 11.2730827331543 9.642891883850098 L 16.35000228881836 14.71982192993164 L 21.42692184448242 9.642891883850098 L 23.0571117401123 11.2730827331543 L 17.98018264770508 16.35000228881836 L 23.05710220336914 21.42692184448242 L 21.42693138122559 23.0571117401123 Z" stroke="none" fill="#000"/>
  </g>
</svg>
