<svg xmlns="http://www.w3.org/2000/svg" width="13" height="10" viewBox="0 0 20 17">
  <g id="Group_58307" data-name="Group 58307" transform="translate(-443 -564)">
    <path id="Polygon_9" data-name="Polygon 9" d="M8.276,2.931a2,2,0,0,1,3.448,0l6.5,11.055A2,2,0,0,1,16.5,17H3.5a2,2,0,0,1-1.724-3.014Z" transform="translate(443 564)" fill="#c61818"/>
    <path id="Path_155392" data-name="Path 155392" d="M1.909-7.545,1.822-2.633H.889L.8-7.545ZM1.357.258a.655.655,0,0,1-.478-.2.635.635,0,0,1-.2-.476.631.631,0,0,1,.2-.473.655.655,0,0,1,.478-.2.647.647,0,0,1,.471.2.654.654,0,0,1,.2.473.666.666,0,0,1-.1.338L1.8.083,1.691.167A.636.636,0,0,1,1.357.258Z" transform="translate(451.643 577.982)" fill="#fff" stroke="#fff" stroke-width="0.5"/>
  </g>
</svg>
