<svg xmlns="http://www.w3.org/2000/svg" width="13" height="13" viewBox="0 0 20 20">
  <path id="language_FILL0_wght300_GRAD0_opsz24" d="M110-840a9.681,9.681,0,0,1-3.882-.788,10.142,10.142,0,0,1-3.183-2.147,10.143,10.143,0,0,1-2.147-3.183A9.681,9.681,0,0,1,100-850a9.663,9.663,0,0,1,.788-3.89,10.167,10.167,0,0,1,2.147-3.175,10.143,10.143,0,0,1,3.183-2.147A9.682,9.682,0,0,1,110-860a9.665,9.665,0,0,1,3.89.788,10.169,10.169,0,0,1,3.175,2.147,10.167,10.167,0,0,1,2.147,3.175A9.663,9.663,0,0,1,120-850a9.681,9.681,0,0,1-.788,3.882,10.143,10.143,0,0,1-2.147,3.183,10.168,10.168,0,0,1-3.175,2.147A9.664,9.664,0,0,1,110-840Zm0-1.6a14.4,14.4,0,0,0,1.356-2.156,12.307,12.307,0,0,0,.9-2.377h-4.506a13.435,13.435,0,0,0,.907,2.417A12.348,12.348,0,0,0,110-841.6Zm-2.038-.289a11.418,11.418,0,0,1-1.087-1.975,12.925,12.925,0,0,1-.749-2.268h-3.571a8.252,8.252,0,0,0,2.237,2.755A7.514,7.514,0,0,0,107.963-841.89Zm4.077,0a7.514,7.514,0,0,0,3.17-1.488,8.252,8.252,0,0,0,2.237-2.755h-3.571a16.54,16.54,0,0,1-.8,2.278A13.69,13.69,0,0,1,112.039-841.89Zm-10.146-5.822h3.913q-.1-.587-.144-1.151T105.618-850q0-.573.045-1.137t.144-1.151h-3.913a8.327,8.327,0,0,0-.233,1.115A8.451,8.451,0,0,0,101.58-850a8.45,8.45,0,0,0,.081,1.172,8.325,8.325,0,0,0,.233,1.115Zm5.492,0h5.231q.1-.587.144-1.141T112.8-850q0-.593-.045-1.147t-.144-1.141h-5.231q-.1.587-.144,1.141T107.2-850q0,.593.045,1.147T107.386-847.712Zm6.81,0h3.913a8.326,8.326,0,0,0,.233-1.115,8.452,8.452,0,0,0,.081-1.172,8.452,8.452,0,0,0-.081-1.172,8.326,8.326,0,0,0-.233-1.115H114.2q.1.587.144,1.151t.045,1.137q0,.573-.045,1.137t-.144,1.151Zm-.32-6.154h3.571a8.23,8.23,0,0,0-2.222-2.755,7.751,7.751,0,0,0-3.185-1.5,13.082,13.082,0,0,1,1.077,2.01A14.477,14.477,0,0,1,113.875-853.865Zm-6.128,0h4.506a13.524,13.524,0,0,0-.922-2.432A12.286,12.286,0,0,0,110-858.4a12.286,12.286,0,0,0-1.331,2.1A13.524,13.524,0,0,0,107.748-853.865Zm-5.192,0h3.571a14.478,14.478,0,0,1,.759-2.243,13.083,13.083,0,0,1,1.077-2.01,7.679,7.679,0,0,0-3.19,1.5A8.342,8.342,0,0,0,102.556-853.865Z" transform="translate(-100.001 859.999)" fill="#fff"/>
</svg>
